<svg xmlns="http://www.w3.org/2000/svg" width="90" height="20" viewBox="0 0 90 20">
    <path fill="#FFF" fill-rule="nonzero" d="M1.58 3.66V17H9.2v-2.94H5.04V3.66H1.58zm22.78 6.68c0-1.78-.68-3.66-2.1-5-1.36-1.3-3.28-1.98-5.26-1.98s-3.9.68-5.26 1.98c-1.42 1.34-2.1 3.22-2.1 5 0 1.76.68 3.62 2.1 4.98 1.36 1.3 3.28 1.98 5.26 1.98s3.9-.68 5.26-1.98c1.42-1.36 2.1-3.22 2.1-4.98zM17 6.72c.92 0 1.94.36 2.68 1.06a3.6 3.6 0 0 1 1.08 2.56c0 1.02-.46 1.94-1.08 2.56-.62.62-1.5 1.04-2.68 1.04-1.16 0-2.06-.44-2.7-1.06a3.39 3.39 0 0 1-1.06-2.48c0-.94.34-1.92 1.06-2.62.72-.72 1.74-1.06 2.7-1.06zm23.68 3.62c0-1.78-.68-3.66-2.1-5-1.36-1.3-3.28-1.98-5.26-1.98s-3.9.68-5.26 1.98c-1.42 1.34-2.1 3.22-2.1 5 0 1.76.68 3.62 2.1 4.98 1.36 1.3 3.28 1.98 5.26 1.98s3.9-.68 5.26-1.98c1.42-1.36 2.1-3.22 2.1-4.98zm-7.36-3.62c.92 0 1.94.36 2.68 1.06a3.6 3.6 0 0 1 1.08 2.56c0 1.02-.46 1.94-1.08 2.56-.62.62-1.5 1.04-2.68 1.04-1.16 0-2.06-.44-2.7-1.06a3.39 3.39 0 0 1-1.06-2.48c0-.94.34-1.92 1.06-2.62.72-.72 1.74-1.06 2.7-1.06zm13.02-3.06h-3.46V17h3.46v-5.78L50.86 17h4.48l-5.78-7.02 5.3-6.32h-4.28l-4.24 5.5v-5.5zm16.18 8.92c1.04 0 2.28-.14 3.32-1.16s1.18-2.26 1.18-3.32c0-1.12-.2-2.24-1.24-3.24-1.02-.98-2.22-1.2-3.38-1.2h-5.52V17h3.46v-4.42h2.18zm-2.18-6.12h1.18c.44 0 1.08.06 1.48.48.36.36.4.84.4 1.2 0 .32-.02.86-.44 1.22-.42.38-1.1.42-1.46.42h-1.16V6.46zm8.52-2.8V17h3.46V3.66h-3.46zM78.58 17h-3.46V3.66h3.46l6.38 8.16V3.66h3.46V17h-3.46l-6.38-8.16V17z"/>
</svg>
